<?xml version="1.0" ?><svg viewBox="0 0 64 64" xmlns="http://www.w3.org/2000/svg"><defs><style>.cls-1{fill:#d6d6d6;}.cls-2{fill:#e6e6e6;}.cls-3{fill:#ebebeb;}.cls-4{fill:#fccb7e;}.cls-5{fill:#fdd598;}</style></defs><title/><g data-name="Layer 25" id="Layer_25"><path class="cls-1" d="M11,12h0a1,1,0,0,1-1-1V10H9A1,1,0,0,1,9,8h2a1,1,0,0,1,1,1v2A1,1,0,0,1,11,12Z"/><path class="cls-1" d="M11,16a1,1,0,0,1-1-1V14a1,1,0,0,1,2,0v1A1,1,0,0,1,11,16Z"/><path class="cls-1" d="M17,12h0a1,1,0,0,1-1-1V10H15a1,1,0,0,1,0-2h2a1,1,0,0,1,1,1v2A1,1,0,0,1,17,12Z"/><path class="cls-1" d="M17,16a1,1,0,0,1-1-1V14a1,1,0,0,1,2,0v1A1,1,0,0,1,17,16Z"/><path class="cls-1" d="M23,12h0a1,1,0,0,1-1-1V10H21a1,1,0,0,1,0-2h2a1,1,0,0,1,1,1v2A1,1,0,0,1,23,12Z"/><path class="cls-1" d="M23,16a1,1,0,0,1-1-1V14a1,1,0,0,1,2,0v1A1,1,0,0,1,23,16Z"/><path class="cls-1" d="M29,12h0a1,1,0,0,1-1-1V10H27a1,1,0,0,1,0-2h2a1,1,0,0,1,1,1v2A1,1,0,0,1,29,12Z"/><path class="cls-1" d="M29,16a1,1,0,0,1-1-1V14a1,1,0,0,1,2,0v1A1,1,0,0,1,29,16Z"/><path class="cls-1" d="M35,12h0a1,1,0,0,1-1-1V10H33a1,1,0,0,1,0-2h2a1,1,0,0,1,1,1v2A1,1,0,0,1,35,12Z"/><path class="cls-1" d="M35,16a1,1,0,0,1-1-1V14a1,1,0,0,1,2,0v1A1,1,0,0,1,35,16Z"/><path class="cls-1" d="M41,12h0a1,1,0,0,1-1-1V10H39a1,1,0,0,1,0-2h2a1,1,0,0,1,1,1v2A1,1,0,0,1,41,12Z"/><path class="cls-1" d="M41,16a1,1,0,0,1-1-1V14a1,1,0,0,1,2,0v1A1,1,0,0,1,41,16Z"/><path class="cls-1" d="M47,12h0a1,1,0,0,1-1-1V10H45a1,1,0,0,1,0-2h2a1,1,0,0,1,1,1v2A1,1,0,0,1,47,12Z"/><path class="cls-1" d="M47,16a1,1,0,0,1-1-1V14a1,1,0,0,1,2,0v1A1,1,0,0,1,47,16Z"/><path class="cls-2" d="M61,26H54.954a1,1,0,0,0-1,.969c-.047,1.476-.125,2.753-.244,3.94a1,1,0,0,0,1,1.091H57a1,1,0,0,1,1,1v4a1,1,0,0,1-1,1H53.312a1,1,0,0,0-.971.762c-.347,1.416-.709,2.7-1.107,3.93A1,1,0,0,0,52.186,44H61a3,3,0,0,0,3-3V29A3,3,0,0,0,61,26Z"/><path class="cls-3" d="M61,26H59a3,3,0,0,1,3,3V41a3,3,0,0,1-3,3h2a3,3,0,0,0,3-3V29A3,3,0,0,0,61,26Z"/><path class="cls-2" d="M56,25.17c0,.49-.02.97-.03,1.45l-.02.41c-.04,1.52-.12,2.84-.24,4.04a59.11,59.11,0,0,1-1.43,8.17c-.36,1.46-.73,2.79-1.14,4.07a59.219,59.219,0,0,1-5.54,12.2.99.99,0,0,1-.86.49H9.26a.99.99,0,0,1-.86-.49C7.71,54.36,7.07,53.19,6.46,52c-.34-.66-.66-1.33-.97-2A58.921,58.921,0,0,1,.03,26.98C.01,26.38,0,25.77,0,25.17s.01-1.21.03-1.82V19a1,1,0,0,1,1-1H54.67a1,1,0,0,1,.99.83c.02.14.04.29.05.45C55.9,21.24,56,23.22,56,25.17Z"/><path class="cls-3" d="M55.71,19.28c-.01-.16-.03-.31-.05-.45a1,1,0,0,0-.99-.83H52.64a1,1,0,0,1,.99.83c.02.14.04.29.05.45.19,1.96.29,3.94.29,5.89,0,.49-.02.97-.03,1.45l-.02.41c-.04,1.52-.12,2.84-.24,4.04a59.11,59.11,0,0,1-1.43,8.17c-.36,1.46-.73,2.79-1.14,4.07a59.219,59.219,0,0,1-5.54,12.2.99.99,0,0,1-.86.49h2.03a.99.99,0,0,0,.86-.49,59.219,59.219,0,0,0,5.54-12.2c.41-1.28.78-2.61,1.14-4.07a59.11,59.11,0,0,0,1.43-8.17c.12-1.2.2-2.52.24-4.04l.02-.41c.01-.48.03-.96.03-1.45C56,23.22,55.9,21.24,55.71,19.28Z"/><path class="cls-4" d="M45,27V39a1,1,0,0,1-1,1H38a1,1,0,0,1-1-1V27a1,1,0,0,1,1-1h2V18h2v8h2A1,1,0,0,1,45,27Z"/><rect class="cls-5" height="8" width="1" x="41" y="18"/><path class="cls-5" d="M44,26H43a1,1,0,0,1,1,1V39a1,1,0,0,1-1,1h1a1,1,0,0,0,1-1V27A1,1,0,0,0,44,26Z"/><path class="cls-1" d="M40,51a1,1,0,0,1-1,1H6.46c-.34-.66-.66-1.33-.97-2H39A1,1,0,0,1,40,51Z"/><path class="cls-1" d="M45,52H43a1,1,0,0,1,0-2h2a1,1,0,0,1,0,2Z"/></g></svg>