<?xml version="1.0" encoding="UTF-8" standalone="no"?>
<!-- Created with Inkscape (http://www.inkscape.org/) -->

<svg
   xmlns:dc="http://purl.org/dc/elements/1.1/"
   xmlns:cc="http://creativecommons.org/ns#"
   xmlns:rdf="http://www.w3.org/1999/02/22-rdf-syntax-ns#"
   xmlns:svg="http://www.w3.org/2000/svg"
   xmlns="http://www.w3.org/2000/svg"
   xmlns:sodipodi="http://sodipodi.sourceforge.net/DTD/sodipodi-0.dtd"
   xmlns:inkscape="http://www.inkscape.org/namespaces/inkscape"
   width="48pt"
   height="48pt"
   viewBox="0 0 16.933334 16.933333"
   version="1.1"
   id="svg979"
   inkscape:version="0.92.4 (5da689c313, 2019-01-14)"
   sodipodi:docname="8 - Nail Polish.svg"
   inkscape:export-filename="E:\TR Design Studio Creative\Project Design\TR Creative Design\Icon Design\Project Hiring\Icon Icons\Project - 001\002 - Beauty And Fashion\Send\3 - Flat\8 - Nail Polish.png"
   inkscape:export-xdpi="768"
   inkscape:export-ydpi="768">
  <defs
     id="defs973" />
  <sodipodi:namedview
     id="base"
     pagecolor="#ffffff"
     bordercolor="#666666"
     borderopacity="1.0"
     inkscape:pageopacity="0.0"
     inkscape:pageshadow="2"
     inkscape:zoom="8.546875"
     inkscape:cx="32"
     inkscape:cy="32"
     inkscape:document-units="pt"
     inkscape:current-layer="layer1"
     showgrid="false"
     units="pt"
     inkscape:window-width="1366"
     inkscape:window-height="716"
     inkscape:window-x="-8"
     inkscape:window-y="-8"
     inkscape:window-maximized="1"
     inkscape:snap-bbox="true"
     inkscape:bbox-nodes="true"
     inkscape:snap-nodes="false"
     showguides="false">
    <inkscape:grid
       type="xygrid"
       id="grid1526" />
    <sodipodi:guide
       position="0.97013909,15.963209"
       orientation="56.666615,0"
       id="guide1528"
       inkscape:locked="false" />
    <sodipodi:guide
       position="0.97013909,0.97016731"
       orientation="0,56.666667"
       id="guide1530"
       inkscape:locked="false" />
    <sodipodi:guide
       position="15.963195,0.97016731"
       orientation="-56.666615,0"
       id="guide1532"
       inkscape:locked="false" />
    <sodipodi:guide
       position="15.963195,15.963209"
       orientation="0,-56.666667"
       id="guide1534"
       inkscape:locked="false" />
  </sodipodi:namedview>
  <metadata
     id="metadata976">
    <rdf:RDF>
      <cc:Work
         rdf:about="">
        <dc:format>image/svg+xml</dc:format>
        <dc:type
           rdf:resource="http://purl.org/dc/dcmitype/StillImage" />
        <dc:title></dc:title>
      </cc:Work>
    </rdf:RDF>
  </metadata>
  <g
     inkscape:label="Layer 1"
     inkscape:groupmode="layer"
     id="layer1"
     transform="translate(0,-280.06668)">
    <g
       transform="matrix(1.2252585,0,0,1.2252585,27.657468,-67.587308)"
       style="display:inline;stroke-width:0.8161543"
       id="g2233">
      <g
         id="g2201"
         style="stroke-width:0.8161543">
        <path
           style="color:#000000;font-style:normal;font-variant:normal;font-weight:normal;font-stretch:normal;font-size:medium;line-height:normal;font-family:sans-serif;font-variant-ligatures:normal;font-variant-position:normal;font-variant-caps:normal;font-variant-numeric:normal;font-variant-alternates:normal;font-feature-settings:normal;text-indent:0;text-align:start;text-decoration:none;text-decoration-line:none;text-decoration-style:solid;text-decoration-color:#000000;letter-spacing:normal;word-spacing:normal;text-transform:none;writing-mode:lr-tb;direction:ltr;text-orientation:mixed;dominant-baseline:auto;baseline-shift:baseline;text-anchor:start;white-space:normal;shape-padding:0;clip-rule:nonzero;display:inline;overflow:visible;visibility:visible;opacity:1;isolation:auto;mix-blend-mode:normal;color-interpolation:sRGB;color-interpolation-filters:linearRGB;solid-color:#000000;solid-opacity:1;vector-effect:none;fill:#ffd180;fill-opacity:1;fill-rule:nonzero;stroke:none;stroke-width:0.4318811;stroke-linecap:round;stroke-linejoin:round;stroke-miterlimit:4;stroke-dasharray:none;stroke-dashoffset:0;stroke-opacity:1;paint-order:markers fill stroke;color-rendering:auto;image-rendering:auto;shape-rendering:auto;text-rendering:auto;enable-background:accumulate"
           d="m -20.71875,289.12109 a 0.26460945,0.26460945 0 0 0 -0.132812,0.0352 c -0.555226,0.31938 -0.925782,0.92187 -0.925782,1.60742 v 5.24219 a 0.26460945,0.26460945 0 0 0 0.0098,0.12695 0.26460945,0.26460945 0 0 0 0.03125,0.0684 0.26460945,0.26460945 0 0 0 0.002,0.004 0.26460945,0.26460945 0 0 0 0.002,0.002 0.26460945,0.26460945 0 0 0 0.01367,0.0195 0.26460945,0.26460945 0 0 0 0.002,0.002 0.26460945,0.26460945 0 0 0 0.01563,0.0176 0.26460945,0.26460945 0 0 0 0.0059,0.004 0.26460945,0.26460945 0 0 0 0.01562,0.0137 0.26460945,0.26460945 0 0 0 0.002,0 0.26460945,0.26460945 0 0 0 0.208984,0.0547 h 4.189453 a 0.26460945,0.26460945 0 0 0 0.263672,-0.26367 v -5.29102 c 0,-0.68638 -0.373343,-1.28833 -0.929687,-1.60742 a 0.26460945,0.26460945 0 0 0 -0.13086,-0.0352 z"
           id="path1585"
           inkscape:connector-curvature="0"
           inkscape:export-xdpi="700.72992"
           inkscape:export-ydpi="700.72992" />
        <path
           style="color:#000000;font-style:normal;font-variant:normal;font-weight:normal;font-stretch:normal;font-size:medium;line-height:normal;font-family:sans-serif;font-variant-ligatures:normal;font-variant-position:normal;font-variant-caps:normal;font-variant-numeric:normal;font-variant-alternates:normal;font-feature-settings:normal;text-indent:0;text-align:start;text-decoration:none;text-decoration-line:none;text-decoration-style:solid;text-decoration-color:#000000;letter-spacing:normal;word-spacing:normal;text-transform:none;writing-mode:lr-tb;direction:ltr;text-orientation:mixed;dominant-baseline:auto;baseline-shift:baseline;text-anchor:start;white-space:normal;shape-padding:0;clip-rule:nonzero;display:inline;overflow:visible;visibility:visible;opacity:1;isolation:auto;mix-blend-mode:normal;color-interpolation:sRGB;color-interpolation-filters:linearRGB;solid-color:#000000;solid-opacity:1;vector-effect:none;fill:#f8a364;fill-opacity:1;fill-rule:nonzero;stroke:none;stroke-width:0.4318811;stroke-linecap:round;stroke-linejoin:round;stroke-miterlimit:4;stroke-dasharray:none;stroke-dashoffset:0;stroke-opacity:1;paint-order:markers fill stroke;color-rendering:auto;image-rendering:auto;shape-rendering:auto;text-rendering:auto;enable-background:accumulate"
           d="m -20.718498,289.12089 a 0.26460944,0.26460944 0 0 0 -0.132809,0.0351 c -0.38959,0.22411 -0.684846,0.58943 -0.828372,1.0232 l 2.54558,5.3e-4 a 0.26460944,0.26460944 0 0 1 0.130742,0.0351 c 0.556344,0.31909 0.929659,0.92127 0.929659,1.60765 v 4.49637 h 0.794783 a 0.26460944,0.26460944 0 0 0 0.26355,-0.26407 v -5.29065 c 0,-0.68638 -0.373315,-1.28856 -0.929659,-1.60765 a 0.26460944,0.26460944 0 0 0 -0.130741,-0.0351 z"
           id="path1590"
           inkscape:connector-curvature="0"
           inkscape:export-xdpi="700.72992"
           inkscape:export-ydpi="700.72992" />
        <path
           style="color:#000000;font-style:normal;font-variant:normal;font-weight:normal;font-stretch:normal;font-size:medium;line-height:normal;font-family:sans-serif;font-variant-ligatures:normal;font-variant-position:normal;font-variant-caps:normal;font-variant-numeric:normal;font-variant-alternates:normal;font-feature-settings:normal;text-indent:0;text-align:start;text-decoration:none;text-decoration-line:none;text-decoration-style:solid;text-decoration-color:#000000;letter-spacing:normal;word-spacing:normal;text-transform:none;writing-mode:lr-tb;direction:ltr;text-orientation:mixed;dominant-baseline:auto;baseline-shift:baseline;text-anchor:start;white-space:normal;shape-padding:0;clip-rule:nonzero;display:inline;overflow:visible;visibility:visible;opacity:1;isolation:auto;mix-blend-mode:normal;color-interpolation:sRGB;color-interpolation-filters:linearRGB;solid-color:#000000;solid-opacity:1;vector-effect:none;fill:#ff4081;fill-opacity:1;fill-rule:nonzero;stroke:none;stroke-width:0.43188193;stroke-linecap:round;stroke-linejoin:round;stroke-miterlimit:4;stroke-dasharray:none;stroke-dashoffset:0;stroke-opacity:1;paint-order:markers fill stroke;color-rendering:auto;image-rendering:auto;shape-rendering:auto;text-rendering:auto;enable-background:accumulate"
           d="m -19.396484,287.32422 c -0.714375,0 -1.140429,0.22711 -1.361328,0.49219 -0.2209,0.26508 -0.226563,0.56445 -0.226563,0.56445 v 2.11719 c 0,0.8749 0.712992,1.58789 1.587891,1.58789 0.874898,0 1.58789,-0.71299 1.58789,-1.58789 v -2.11719 c 0,0 -0.0057,-0.29937 -0.226562,-0.56445 -0.2209,-0.26508 -0.646953,-0.49219 -1.361328,-0.49219 z"
           id="path1603"
           inkscape:connector-curvature="0"
           inkscape:export-xdpi="700.72992"
           inkscape:export-ydpi="700.72992" />
        <path
           style="color:#000000;font-style:normal;font-variant:normal;font-weight:normal;font-stretch:normal;font-size:medium;line-height:normal;font-family:sans-serif;font-variant-ligatures:normal;font-variant-position:normal;font-variant-caps:normal;font-variant-numeric:normal;font-variant-alternates:normal;font-feature-settings:normal;text-indent:0;text-align:start;text-decoration:none;text-decoration-line:none;text-decoration-style:solid;text-decoration-color:#000000;letter-spacing:normal;word-spacing:normal;text-transform:none;writing-mode:lr-tb;direction:ltr;text-orientation:mixed;dominant-baseline:auto;baseline-shift:baseline;text-anchor:start;white-space:normal;shape-padding:0;clip-rule:nonzero;display:inline;overflow:visible;visibility:visible;opacity:1;isolation:auto;mix-blend-mode:normal;color-interpolation:sRGB;color-interpolation-filters:linearRGB;solid-color:#000000;solid-opacity:1;vector-effect:none;fill:#f79349;fill-opacity:1;fill-rule:nonzero;stroke:none;stroke-width:0.43188193;stroke-linecap:round;stroke-linejoin:round;stroke-miterlimit:4;stroke-dasharray:none;stroke-dashoffset:0;stroke-opacity:1;paint-order:markers fill stroke;color-rendering:auto;image-rendering:auto;shape-rendering:auto;text-rendering:auto;enable-background:accumulate"
           d="m -20.347656,292.38086 a 0.26460996,0.26460996 0 0 0 -0.121094,0.49414 c 0.29025,0.17415 0.663218,0.26953 1.072266,0.26953 0.409047,0 0.782015,-0.0954 1.072265,-0.26953 a 0.26495347,0.26495347 0 1 0 -0.271484,-0.45508 c -0.187986,0.11279 -0.476933,0.19531 -0.800781,0.19531 -0.323849,0 -0.612797,-0.0825 -0.800782,-0.19531 a 0.26460996,0.26460996 0 0 0 -0.15039,-0.0391 z"
           id="path1256"
           inkscape:connector-curvature="0"
           inkscape:export-xdpi="700.72992"
           inkscape:export-ydpi="700.72992" />
        <path
           style="color:#000000;font-style:normal;font-variant:normal;font-weight:normal;font-stretch:normal;font-size:medium;line-height:normal;font-family:sans-serif;font-variant-ligatures:normal;font-variant-position:normal;font-variant-caps:normal;font-variant-numeric:normal;font-variant-alternates:normal;font-feature-settings:normal;text-indent:0;text-align:start;text-decoration:none;text-decoration-line:none;text-decoration-style:solid;text-decoration-color:#000000;letter-spacing:normal;word-spacing:normal;text-transform:none;writing-mode:lr-tb;direction:ltr;text-orientation:mixed;dominant-baseline:auto;baseline-shift:baseline;text-anchor:start;white-space:normal;shape-padding:0;clip-rule:nonzero;display:inline;overflow:visible;visibility:visible;opacity:1;isolation:auto;mix-blend-mode:normal;color-interpolation:sRGB;color-interpolation-filters:linearRGB;solid-color:#000000;solid-opacity:1;vector-effect:none;fill:#c21470;fill-opacity:1;fill-rule:nonzero;stroke:none;stroke-width:1.63230968;stroke-linecap:round;stroke-linejoin:round;stroke-miterlimit:4;stroke-dasharray:none;stroke-dashoffset:0;stroke-opacity:1;paint-order:markers fill stroke;color-rendering:auto;image-rendering:auto;shape-rendering:auto;text-rendering:auto;enable-background:accumulate"
           d="m -72.888672,18.472656 a 1.0001006,1.0001006 0 0 0 -0.103516,0.0078 1.0001006,1.0001006 0 0 0 -0.886718,1.009765 c 0,1.989393 -0.494226,2.494586 -1.203125,3.449219 -0.7089,0.954633 -1.601567,2.328358 -1.601563,4.892578 v 0.552735 c 0.598525,0.408725 1.275931,0.705984 2.001953,0.876953 v -1.429688 c 0,-2.169562 0.510897,-2.76512 1.203125,-3.697265 0.692228,-0.932183 1.601563,-2.23085 1.601563,-4.644532 a 1.0001006,1.0001006 0 0 0 -1.011719,-1.017578 z"
           transform="matrix(0.26458333,0,0,0.26458333,0,284.3)"
           id="path1258"
           inkscape:connector-curvature="0"
           inkscape:export-xdpi="700.72992"
           inkscape:export-ydpi="700.72992" />
        <path
           style="color:#000000;font-style:normal;font-variant:normal;font-weight:normal;font-stretch:normal;font-size:medium;line-height:normal;font-family:sans-serif;font-variant-ligatures:normal;font-variant-position:normal;font-variant-caps:normal;font-variant-numeric:normal;font-variant-alternates:normal;font-feature-settings:normal;text-indent:0;text-align:start;text-decoration:none;text-decoration-line:none;text-decoration-style:solid;text-decoration-color:#000000;letter-spacing:normal;word-spacing:normal;text-transform:none;writing-mode:lr-tb;direction:ltr;text-orientation:mixed;dominant-baseline:auto;baseline-shift:baseline;text-anchor:start;white-space:normal;shape-padding:0;clip-rule:nonzero;display:inline;overflow:visible;visibility:visible;opacity:1;isolation:auto;mix-blend-mode:normal;color-interpolation:sRGB;color-interpolation-filters:linearRGB;solid-color:#000000;solid-opacity:1;vector-effect:none;fill:#c21470;fill-opacity:1;fill-rule:nonzero;stroke:none;stroke-width:0.43188193;stroke-linecap:round;stroke-linejoin:round;stroke-miterlimit:4;stroke-dasharray:none;stroke-dashoffset:0;stroke-opacity:1;paint-order:markers fill stroke;color-rendering:auto;image-rendering:auto;shape-rendering:auto;text-rendering:auto;enable-background:accumulate"
           d="m -19.232422,289.89453 c -0.124378,-0.0954 -0.243679,-0.14097 -0.322266,-0.18555 -0.07859,-0.0446 -0.09562,-0.0679 -0.09961,-0.0801 -0.03552,-0.11371 -0.142657,-0.18967 -0.261719,-0.18555 l 1e-6,3e-5 c -0.176842,0.007 -0.297217,0.18206 -0.240234,0.34961 0.06535,0.19914 0.22237,0.30921 0.341797,0.37695 0.119427,0.0677 0.220616,0.11451 0.259765,0.14453 z"
           id="path1262"
           inkscape:connector-curvature="0"
           sodipodi:nodetypes="ccccccccc"
           inkscape:export-xdpi="700.72992"
           inkscape:export-ydpi="700.72992" />
        <path
           style="color:#000000;font-style:normal;font-variant:normal;font-weight:normal;font-stretch:normal;font-size:medium;line-height:normal;font-family:sans-serif;font-variant-ligatures:normal;font-variant-position:normal;font-variant-caps:normal;font-variant-numeric:normal;font-variant-alternates:normal;font-feature-settings:normal;text-indent:0;text-align:start;text-decoration:none;text-decoration-line:none;text-decoration-style:solid;text-decoration-color:#000000;letter-spacing:normal;word-spacing:normal;text-transform:none;writing-mode:lr-tb;direction:ltr;text-orientation:mixed;dominant-baseline:auto;baseline-shift:baseline;text-anchor:start;white-space:normal;shape-padding:0;clip-rule:nonzero;display:inline;overflow:visible;visibility:visible;opacity:1;isolation:auto;mix-blend-mode:normal;color-interpolation:sRGB;color-interpolation-filters:linearRGB;solid-color:#000000;solid-opacity:1;vector-effect:none;fill:#ed2e7e;fill-opacity:1;fill-rule:nonzero;stroke:none;stroke-width:0.43188193;stroke-linecap:round;stroke-linejoin:round;stroke-miterlimit:4;stroke-dasharray:none;stroke-dashoffset:0;stroke-opacity:1;paint-order:markers fill stroke;color-rendering:auto;image-rendering:auto;shape-rendering:auto;text-rendering:auto;enable-background:accumulate"
           d="m -19.396094,287.32408 c -0.714375,0 -1.140775,0.2274 -1.361674,0.49248 -0.2209,0.26508 -0.226343,0.5643 -0.226343,0.5643 v 0.0517 c 0.156037,-0.0312 0.330708,-0.0501 0.529684,-0.0501 0.714375,0 1.140257,0.2274 1.361157,0.49248 0.220862,0.26508 0.226343,0.56431 0.226343,0.56431 v 2.11718 c 0,0.16016 -0.02433,0.31451 -0.06873,0.46044 0.651229,-0.19817 1.127063,-0.80403 1.127063,-1.51877 v -2.11719 c 0,0 -0.0055,-0.29922 -0.226343,-0.5643 -0.2209,-0.26508 -0.646782,-0.49248 -1.361157,-0.49248 z"
           id="path1620"
           inkscape:connector-curvature="0"
           inkscape:export-xdpi="700.72992"
           inkscape:export-ydpi="700.72992" />
        <path
           style="color:#000000;font-style:normal;font-variant:normal;font-weight:normal;font-stretch:normal;font-size:medium;line-height:normal;font-family:sans-serif;font-variant-ligatures:normal;font-variant-position:normal;font-variant-caps:normal;font-variant-numeric:normal;font-variant-alternates:normal;font-feature-settings:normal;text-indent:0;text-align:start;text-decoration:none;text-decoration-line:none;text-decoration-style:solid;text-decoration-color:#000000;letter-spacing:normal;word-spacing:normal;text-transform:none;writing-mode:lr-tb;direction:ltr;text-orientation:mixed;dominant-baseline:auto;baseline-shift:baseline;text-anchor:start;white-space:normal;shape-padding:0;clip-rule:nonzero;display:inline;overflow:visible;visibility:visible;opacity:1;isolation:auto;mix-blend-mode:normal;color-interpolation:sRGB;color-interpolation-filters:linearRGB;solid-color:#000000;solid-opacity:1;vector-effect:none;fill:#c21470;fill-opacity:1;fill-rule:nonzero;stroke:none;stroke-width:0.43188193;stroke-linecap:round;stroke-linejoin:round;stroke-miterlimit:4;stroke-dasharray:none;stroke-dashoffset:0;stroke-opacity:1;paint-order:markers fill stroke;color-rendering:auto;image-rendering:auto;shape-rendering:auto;text-rendering:auto;enable-background:accumulate"
           d="m -19.910156,290.94716 c 0.209157,0.11371 0.425511,0.0995 0.601562,0.0605 0.176052,-0.039 0.302692,-0.0843 0.425782,-0.19726 0.189736,-0.16952 0.05426,-0.48298 -0.199219,-0.46094 v 1.5e-4 c -0.05937,0.006 -0.115123,0.0311 -0.158203,0.0723 0.0283,-0.026 -0.08159,0.0462 -0.181641,0.0684 -0.10005,0.0222 -0.197647,0.0132 -0.236328,-0.008 z"
           id="path1264"
           inkscape:connector-curvature="0"
           sodipodi:nodetypes="ccccccccc"
           inkscape:export-xdpi="700.72992"
           inkscape:export-ydpi="700.72992" />
      </g>
      <g
         id="g2212"
         style="stroke-width:0.8161543">
        <path
           style="color:#000000;font-style:normal;font-variant:normal;font-weight:normal;font-stretch:normal;font-size:medium;line-height:normal;font-family:sans-serif;font-variant-ligatures:normal;font-variant-position:normal;font-variant-caps:normal;font-variant-numeric:normal;font-variant-alternates:normal;font-feature-settings:normal;text-indent:0;text-align:start;text-decoration:none;text-decoration-line:none;text-decoration-style:solid;text-decoration-color:#000000;letter-spacing:normal;word-spacing:normal;text-transform:none;writing-mode:lr-tb;direction:ltr;text-orientation:mixed;dominant-baseline:auto;baseline-shift:baseline;text-anchor:start;white-space:normal;shape-padding:0;clip-rule:nonzero;display:inline;overflow:visible;visibility:visible;opacity:1;isolation:auto;mix-blend-mode:normal;color-interpolation:sRGB;color-interpolation-filters:linearRGB;solid-color:#000000;solid-opacity:1;vector-effect:none;fill:#b9dfff;fill-opacity:1;fill-rule:nonzero;stroke:none;stroke-width:0.43188193;stroke-linecap:round;stroke-linejoin:round;stroke-miterlimit:4;stroke-dasharray:none;stroke-dashoffset:0;stroke-opacity:1;paint-order:markers fill stroke;color-rendering:auto;image-rendering:auto;shape-rendering:auto;text-rendering:auto;enable-background:accumulate"
           d="m -14.822266,289.9668 c -0.456871,0 -0.897542,0.18221 -1.216796,0.48242 -0.319255,0.30021 -0.518063,0.74211 -0.431641,1.2168 l 0.554687,3.04882 c 0.07621,0.41859 0.247118,0.8113 0.523438,1.10938 0.27632,0.29807 0.668128,0.49414 1.125,0.49414 h 2.498047 c 0.456872,0 0.84868,-0.19607 1.125,-0.49414 0.27632,-0.29808 0.447229,-0.69079 0.523437,-1.10938 l 0.5566409,-3.04882 c 0.086422,-0.47469 -0.1143391,-0.91659 -0.4335938,-1.2168 -0.3192551,-0.30021 -0.7579721,-0.48242 -1.2148441,-0.48242 z"
           id="path1536"
           inkscape:connector-curvature="0"
           inkscape:export-xdpi="700.72992"
           inkscape:export-ydpi="700.72992" />
        <path
           style="color:#000000;font-style:normal;font-variant:normal;font-weight:normal;font-stretch:normal;font-size:medium;line-height:normal;font-family:sans-serif;font-variant-ligatures:normal;font-variant-position:normal;font-variant-caps:normal;font-variant-numeric:normal;font-variant-alternates:normal;font-feature-settings:normal;text-indent:0;text-align:start;text-decoration:none;text-decoration-line:none;text-decoration-style:solid;text-decoration-color:#000000;letter-spacing:normal;word-spacing:normal;text-transform:none;writing-mode:lr-tb;direction:ltr;text-orientation:mixed;dominant-baseline:auto;baseline-shift:baseline;text-anchor:start;white-space:normal;shape-padding:0;clip-rule:nonzero;display:inline;overflow:visible;visibility:visible;opacity:1;isolation:auto;mix-blend-mode:normal;color-interpolation:sRGB;color-interpolation-filters:linearRGB;solid-color:#000000;solid-opacity:1;vector-effect:none;fill:#81b3ff;fill-opacity:1;fill-rule:nonzero;stroke:none;stroke-width:1.63230968;stroke-linecap:round;stroke-linejoin:round;stroke-miterlimit:4;stroke-dasharray:none;stroke-dashoffset:0;stroke-opacity:1;paint-order:markers fill stroke;color-rendering:auto;image-rendering:auto;shape-rendering:auto;text-rendering:auto;enable-background:accumulate"
           d="m -56.021484,21.417969 c -1.726761,0 -3.391027,0.687613 -4.597657,1.822265 -1.206633,1.134652 -1.959446,2.805506 -1.632812,4.59961 l 0.0332,0.183594 c 0.228661,-1.076863 0.815391,-2.043827 1.599609,-2.78125 1.206633,-1.134652 2.8709,-1.822266 4.597657,-1.822266 h 13.642578 c 2.868813,0.05771 4.675104,1.749492 4.230468,4.419922 l -2.105468,11.523437 c -0.288038,1.582073 -0.932204,3.066758 -1.976563,4.19336 -1.044359,1.126563 -2.525193,1.867187 -4.251953,1.867187 h 2 c 1.72676,0 3.207594,-0.740624 4.251953,-1.867187 1.044359,-1.126602 1.688533,-2.611287 1.976563,-4.19336 0.424699,-4.234123 2.143069,-8.670483 2.156242,-12.837938 0,-3.416825 -4.104281,-5.107562 -6.28125,-5.107562 -4.483114,0.0026 -9.061451,8.99e-4 -13.642567,1.88e-4 z"
           transform="matrix(0.26458333,0,0,0.26458333,0,284.3)"
           id="path1555"
           inkscape:connector-curvature="0"
           sodipodi:nodetypes="cccccscccccsccccc"
           inkscape:export-xdpi="700.72992"
           inkscape:export-ydpi="700.72992" />
        <path
           style="color:#000000;font-style:normal;font-variant:normal;font-weight:normal;font-stretch:normal;font-size:medium;line-height:normal;font-family:sans-serif;font-variant-ligatures:normal;font-variant-position:normal;font-variant-caps:normal;font-variant-numeric:normal;font-variant-alternates:normal;font-feature-settings:normal;text-indent:0;text-align:start;text-decoration:none;text-decoration-line:none;text-decoration-style:solid;text-decoration-color:#000000;letter-spacing:normal;word-spacing:normal;text-transform:none;writing-mode:lr-tb;direction:ltr;text-orientation:mixed;dominant-baseline:auto;baseline-shift:baseline;text-anchor:start;white-space:normal;shape-padding:0;clip-rule:nonzero;display:inline;overflow:visible;visibility:visible;opacity:1;isolation:auto;mix-blend-mode:normal;color-interpolation:sRGB;color-interpolation-filters:linearRGB;solid-color:#000000;solid-opacity:1;vector-effect:none;fill:#546e7a;fill-opacity:1;fill-rule:nonzero;stroke:none;stroke-width:0.43188193;stroke-linecap:round;stroke-linejoin:round;stroke-miterlimit:4;stroke-dasharray:none;stroke-dashoffset:0;stroke-opacity:1;paint-order:markers fill stroke;color-rendering:auto;image-rendering:auto;shape-rendering:auto;text-rendering:auto;enable-background:accumulate"
           d="m -14.294922,288.85938 a 0.26460996,0.26460996 0 0 0 -0.238281,0.26367 v 1.10937 a 0.26460996,0.26460996 0 0 0 0.265625,0.26367 h 2.498047 a 0.26460996,0.26460996 0 0 0 0.265625,-0.26367 v -1.10937 a 0.26460996,0.26460996 0 0 0 -0.265625,-0.26367 h -2.498047 a 0.26460996,0.26460996 0 0 0 -0.02734,0 z"
           id="path1528"
           inkscape:connector-curvature="0"
           inkscape:export-xdpi="700.72992"
           inkscape:export-ydpi="700.72992" />
        <path
           style="color:#000000;font-style:normal;font-variant:normal;font-weight:normal;font-stretch:normal;font-size:medium;line-height:normal;font-family:sans-serif;font-variant-ligatures:normal;font-variant-position:normal;font-variant-caps:normal;font-variant-numeric:normal;font-variant-alternates:normal;font-feature-settings:normal;text-indent:0;text-align:start;text-decoration:none;text-decoration-line:none;text-decoration-style:solid;text-decoration-color:#000000;letter-spacing:normal;word-spacing:normal;text-transform:none;writing-mode:lr-tb;direction:ltr;text-orientation:mixed;dominant-baseline:auto;baseline-shift:baseline;text-anchor:start;white-space:normal;shape-padding:0;clip-rule:nonzero;display:inline;overflow:visible;visibility:visible;opacity:1;isolation:auto;mix-blend-mode:normal;color-interpolation:sRGB;color-interpolation-filters:linearRGB;solid-color:#000000;solid-opacity:1;vector-effect:none;fill:#304a56;fill-opacity:1;fill-rule:nonzero;stroke:none;stroke-width:0.43188193;stroke-linecap:round;stroke-linejoin:round;stroke-miterlimit:4;stroke-dasharray:none;stroke-dashoffset:0;stroke-opacity:1;paint-order:markers fill stroke;color-rendering:auto;image-rendering:auto;shape-rendering:auto;text-rendering:auto;enable-background:accumulate"
           d="m -14.29495,288.85944 c -0.135345,0.0136 -0.238361,0.12753 -0.238228,0.26355 v 0.6844 h 2.234489 c 0.14612,-5.5e-4 0.265032,0.11743 0.265616,0.26355 v 0.42509 h 0.26355 c 0.14612,5.6e-4 0.265033,-0.11743 0.265617,-0.26355 v -1.10949 c -5.84e-4,-0.14612 -0.119497,-0.26411 -0.265617,-0.26355 h -2.498038 c -0.0091,-4.7e-4 -0.01827,-4.7e-4 -0.02739,0 z"
           id="path1550"
           inkscape:connector-curvature="0"
           sodipodi:nodetypes="ccccccccccccc"
           inkscape:export-xdpi="700.72992"
           inkscape:export-ydpi="700.72992" />
        <path
           style="color:#000000;font-style:normal;font-variant:normal;font-weight:normal;font-stretch:normal;font-size:medium;line-height:normal;font-family:sans-serif;font-variant-ligatures:normal;font-variant-position:normal;font-variant-caps:normal;font-variant-numeric:normal;font-variant-alternates:normal;font-feature-settings:normal;text-indent:0;text-align:start;text-decoration:none;text-decoration-line:none;text-decoration-style:solid;text-decoration-color:#000000;letter-spacing:normal;word-spacing:normal;text-transform:none;writing-mode:lr-tb;direction:ltr;text-orientation:mixed;dominant-baseline:auto;baseline-shift:baseline;text-anchor:start;white-space:normal;shape-padding:0;clip-rule:nonzero;display:inline;overflow:visible;visibility:visible;opacity:1;isolation:auto;mix-blend-mode:normal;color-interpolation:sRGB;color-interpolation-filters:linearRGB;solid-color:#000000;solid-opacity:1;vector-effect:none;fill:#b9dfff;fill-opacity:1;fill-rule:nonzero;stroke:none;stroke-width:0.43188193;stroke-linecap:round;stroke-linejoin:round;stroke-miterlimit:4;stroke-dasharray:none;stroke-dashoffset:0;stroke-opacity:1;paint-order:markers fill stroke;color-rendering:auto;image-rendering:auto;shape-rendering:auto;text-rendering:auto;enable-background:accumulate"
           d="m -14.044922,284.97656 c -0.418674,0 -0.765625,0.345 -0.765625,0.76367 v 3.38282 a 0.26460996,0.26460996 0 0 0 0.265625,0.26562 h 3.052734 a 0.26460996,0.26460996 0 0 0 0.265626,-0.26562 v -3.38282 c 0,-0.41867 -0.344999,-0.76367 -0.763672,-0.76367 z"
           id="path1459"
           inkscape:connector-curvature="0"
           inkscape:export-xdpi="700.72992"
           inkscape:export-ydpi="700.72992" />
        <path
           style="color:#000000;font-style:normal;font-variant:normal;font-weight:normal;font-stretch:normal;font-size:medium;line-height:normal;font-family:sans-serif;font-variant-ligatures:normal;font-variant-position:normal;font-variant-caps:normal;font-variant-numeric:normal;font-variant-alternates:normal;font-feature-settings:normal;text-indent:0;text-align:start;text-decoration:none;text-decoration-line:none;text-decoration-style:solid;text-decoration-color:#000000;letter-spacing:normal;word-spacing:normal;text-transform:none;writing-mode:lr-tb;direction:ltr;text-orientation:mixed;dominant-baseline:auto;baseline-shift:baseline;text-anchor:start;white-space:normal;shape-padding:0;clip-rule:nonzero;display:inline;overflow:visible;visibility:visible;opacity:1;isolation:auto;mix-blend-mode:normal;color-interpolation:sRGB;color-interpolation-filters:linearRGB;solid-color:#000000;solid-opacity:1;vector-effect:none;fill:#ff4081;fill-opacity:1;fill-rule:nonzero;stroke:none;stroke-width:0.43188193;stroke-linecap:round;stroke-linejoin:round;stroke-miterlimit:4;stroke-dasharray:none;stroke-dashoffset:0;stroke-opacity:1;paint-order:markers fill stroke;color-rendering:auto;image-rendering:auto;shape-rendering:auto;text-rendering:auto;enable-background:accumulate"
           d="m -14.166016,291.02539 c -0.317045,0 -0.618081,0.12545 -0.839843,0.33399 -0.221763,0.20853 -0.366099,0.52401 -0.304688,0.86132 l 0.353516,1.94141 c 0.0512,0.28121 0.166088,0.54751 0.357422,0.75391 0.191333,0.20639 0.46811,0.3457 0.785156,0.3457 h 1.591797 c 0.317046,0 0.59382,-0.13931 0.785156,-0.3457 0.191336,-0.2064 0.306231,-0.4727 0.357422,-0.75391 l 0.353516,-1.94141 c 0.06141,-0.33731 -0.08293,-0.65279 -0.304688,-0.86132 -0.221762,-0.20854 -0.520844,-0.33399 -0.837891,-0.33399 z"
           id="path1546"
           inkscape:connector-curvature="0"
           inkscape:export-xdpi="700.72992"
           inkscape:export-ydpi="700.72992" />
        <path
           style="color:#000000;font-style:normal;font-variant:normal;font-weight:normal;font-stretch:normal;font-size:medium;line-height:normal;font-family:sans-serif;font-variant-ligatures:normal;font-variant-position:normal;font-variant-caps:normal;font-variant-numeric:normal;font-variant-alternates:normal;font-feature-settings:normal;text-indent:0;text-align:start;text-decoration:none;text-decoration-line:none;text-decoration-style:solid;text-decoration-color:#000000;letter-spacing:normal;word-spacing:normal;text-transform:none;writing-mode:lr-tb;direction:ltr;text-orientation:mixed;dominant-baseline:auto;baseline-shift:baseline;text-anchor:start;white-space:normal;shape-padding:0;clip-rule:nonzero;display:inline;overflow:visible;visibility:visible;opacity:1;isolation:auto;mix-blend-mode:normal;color-interpolation:sRGB;color-interpolation-filters:linearRGB;solid-color:#000000;solid-opacity:1;vector-effect:none;fill:#dbf6ff;fill-opacity:1;fill-rule:nonzero;stroke:none;stroke-width:0.43188193;stroke-linecap:round;stroke-linejoin:round;stroke-miterlimit:4;stroke-dasharray:none;stroke-dashoffset:0;stroke-opacity:1;paint-order:markers fill stroke;color-rendering:auto;image-rendering:auto;shape-rendering:auto;text-rendering:auto;enable-background:accumulate"
           d="m -12.521484,286.00195 a 0.26460996,0.26460996 0 0 0 -0.259766,0.26758 v 1.05859 a 0.2646485,0.2646485 0 1 0 0.529297,0 v -1.05859 a 0.26460996,0.26460996 0 0 0 -0.269531,-0.26758 z"
           id="path1266"
           inkscape:connector-curvature="0"
           inkscape:export-xdpi="700.72992"
           inkscape:export-ydpi="700.72992" />
        <path
           style="color:#000000;font-style:normal;font-variant:normal;font-weight:normal;font-stretch:normal;font-size:medium;line-height:normal;font-family:sans-serif;font-variant-ligatures:normal;font-variant-position:normal;font-variant-caps:normal;font-variant-numeric:normal;font-variant-alternates:normal;font-feature-settings:normal;text-indent:0;text-align:start;text-decoration:none;text-decoration-line:none;text-decoration-style:solid;text-decoration-color:#000000;letter-spacing:normal;word-spacing:normal;text-transform:none;writing-mode:lr-tb;direction:ltr;text-orientation:mixed;dominant-baseline:auto;baseline-shift:baseline;text-anchor:start;white-space:normal;shape-padding:0;clip-rule:nonzero;display:inline;overflow:visible;visibility:visible;opacity:1;isolation:auto;mix-blend-mode:normal;color-interpolation:sRGB;color-interpolation-filters:linearRGB;solid-color:#000000;solid-opacity:1;vector-effect:none;fill:#81b3ff;fill-opacity:1;fill-rule:nonzero;stroke:none;stroke-width:0.43188193;stroke-linecap:round;stroke-linejoin:round;stroke-miterlimit:4;stroke-dasharray:none;stroke-dashoffset:0;stroke-opacity:1;paint-order:markers fill stroke;color-rendering:auto;image-rendering:auto;shape-rendering:auto;text-rendering:auto;enable-background:accumulate"
           d="m -14.044994,284.97649 c -0.348211,0 -0.643677,0.24002 -0.734323,0.56121 0.06589,-0.0187 0.133725,-0.032 0.205156,-0.032 h 2.054655 c 0.418673,0 0.763777,0.34511 0.763777,0.76378 v 3.11919 h 0.26355 a 0.26460995,0.26460995 0 0 0 0.265617,-0.26562 v -3.38274 c 0,-0.41867 -0.345105,-0.76378 -0.763777,-0.76378 z"
           id="path1462"
           inkscape:connector-curvature="0"
           inkscape:export-xdpi="700.72992"
           inkscape:export-ydpi="700.72992" />
        <path
           style="color:#000000;font-style:normal;font-variant:normal;font-weight:normal;font-stretch:normal;font-size:medium;line-height:normal;font-family:sans-serif;font-variant-ligatures:normal;font-variant-position:normal;font-variant-caps:normal;font-variant-numeric:normal;font-variant-alternates:normal;font-feature-settings:normal;text-indent:0;text-align:start;text-decoration:none;text-decoration-line:none;text-decoration-style:solid;text-decoration-color:#000000;letter-spacing:normal;word-spacing:normal;text-transform:none;writing-mode:lr-tb;direction:ltr;text-orientation:mixed;dominant-baseline:auto;baseline-shift:baseline;text-anchor:start;white-space:normal;shape-padding:0;clip-rule:nonzero;display:inline;overflow:visible;visibility:visible;opacity:1;isolation:auto;mix-blend-mode:normal;color-interpolation:sRGB;color-interpolation-filters:linearRGB;solid-color:#000000;solid-opacity:1;vector-effect:none;fill:#e51d71;fill-opacity:1;fill-rule:nonzero;stroke:none;stroke-width:0.43188193;stroke-linecap:round;stroke-linejoin:round;stroke-miterlimit:4;stroke-dasharray:none;stroke-dashoffset:0;stroke-opacity:1;paint-order:markers fill stroke;color-rendering:auto;image-rendering:auto;shape-rendering:auto;text-rendering:auto;enable-background:accumulate"
           d="m -14.165796,291.02517 c -0.317045,0 -0.61798,0.12581 -0.839742,0.33435 -0.09743,0.0916 -0.17847,0.20453 -0.235128,0.33021 0.167203,-0.0838 0.352184,-0.13539 0.545703,-0.13539 h 2.297017 c 0.317047,0 0.615913,0.1258 0.837675,0.33434 0.221758,0.20853 0.366301,0.52362 0.304891,0.86093 l -0.353466,1.94149 c -0.02999,0.16476 -0.08494,0.32271 -0.161231,0.46819 0.127322,-0.0603 0.240303,-0.14363 0.332796,-0.2434 0.191336,-0.2064 0.30641,-0.47275 0.357601,-0.75396 l 0.353467,-1.94148 c 0.06141,-0.33731 -0.08313,-0.6524 -0.304891,-0.86093 -0.221762,-0.20854 -0.520628,-0.33435 -0.837675,-0.33435 z"
           id="path1571"
           inkscape:connector-curvature="0"
           inkscape:export-xdpi="700.72992"
           inkscape:export-ydpi="700.72992" />
      </g>
    </g>
  </g>
</svg>
