<?xml version="1.0" encoding="UTF-8" standalone="no"?>
<!-- Created with Inkscape (http://www.inkscape.org/) -->

<svg
   xmlns:dc="http://purl.org/dc/elements/1.1/"
   xmlns:cc="http://creativecommons.org/ns#"
   xmlns:rdf="http://www.w3.org/1999/02/22-rdf-syntax-ns#"
   xmlns:svg="http://www.w3.org/2000/svg"
   xmlns="http://www.w3.org/2000/svg"
   xmlns:sodipodi="http://sodipodi.sourceforge.net/DTD/sodipodi-0.dtd"
   xmlns:inkscape="http://www.inkscape.org/namespaces/inkscape"
   width="48pt"
   height="48pt"
   viewBox="0 0 16.933334 16.933333"
   version="1.1"
   id="svg979"
   inkscape:version="0.92.4 (5da689c313, 2019-01-14)"
   sodipodi:docname="26 - Face Powder.svg"
   inkscape:export-filename="E:\TR Design Studio Creative\Project Design\TR Creative Design\Icon Design\Project Hiring\Icon Icons\Project - 001\002 - Beauty And Fashion\Send\3 - Flat\26 - Face Powder.png"
   inkscape:export-xdpi="768"
   inkscape:export-ydpi="768">
  <defs
     id="defs973" />
  <sodipodi:namedview
     id="base"
     pagecolor="#ffffff"
     bordercolor="#666666"
     borderopacity="1.0"
     inkscape:pageopacity="0.0"
     inkscape:pageshadow="2"
     inkscape:zoom="6.0435533"
     inkscape:cx="32"
     inkscape:cy="32"
     inkscape:document-units="pt"
     inkscape:current-layer="layer1"
     showgrid="false"
     units="pt"
     inkscape:window-width="1366"
     inkscape:window-height="716"
     inkscape:window-x="-8"
     inkscape:window-y="-8"
     inkscape:window-maximized="1"
     inkscape:snap-bbox="true"
     inkscape:bbox-nodes="true"
     inkscape:snap-nodes="false"
     showguides="false">
    <inkscape:grid
       type="xygrid"
       id="grid1526" />
    <sodipodi:guide
       position="0.97013909,15.963209"
       orientation="56.666615,0"
       id="guide1528"
       inkscape:locked="false" />
    <sodipodi:guide
       position="0.97013909,0.97016731"
       orientation="0,56.666667"
       id="guide1530"
       inkscape:locked="false" />
    <sodipodi:guide
       position="15.963195,0.97016731"
       orientation="-56.666615,0"
       id="guide1532"
       inkscape:locked="false" />
    <sodipodi:guide
       position="15.963195,15.963209"
       orientation="0,-56.666667"
       id="guide1534"
       inkscape:locked="false" />
  </sodipodi:namedview>
  <metadata
     id="metadata976">
    <rdf:RDF>
      <cc:Work
         rdf:about="">
        <dc:format>image/svg+xml</dc:format>
        <dc:type
           rdf:resource="http://purl.org/dc/dcmitype/StillImage" />
        <dc:title></dc:title>
      </cc:Work>
    </rdf:RDF>
  </metadata>
  <g
     inkscape:label="Layer 1"
     inkscape:groupmode="layer"
     id="layer1"
     transform="translate(0,-280.06668)">
    <g
       style="display:inline;stroke-width:0.80875391"
       transform="matrix(1.2364701,0,0,1.2364701,27.845858,-152.51153)"
       id="g1030">
      <path
         inkscape:connector-curvature="0"
         id="path1037"
         d="m -16.515625,360.53319 c -0.916545,0 -1.747877,-0.18762 -2.373047,-0.51172 -0.625169,-0.32409 -1.076172,-0.8085 -1.076171,-1.40234 -1e-6,-0.59384 0.451002,-1.07825 1.076171,-1.40234 0.62517,-0.32409 1.456502,-0.51367 2.373047,-0.51367 0.916545,0 1.747878,0.18958 2.373047,0.51367 0.557623,0.28907 0.927765,0.72045 1.011719,1.22851 a 0.2645835,0.2645835 0 0 1 0.06445,0.17383 0.2645835,0.2645835 0 0 1 -0.06445,0.16992 c -0.0827,0.50954 -0.452906,0.94273 -1.011719,1.23242 -0.625169,0.3241 -1.456502,0.51172 -2.373047,0.51172 z"
         style="color:#000000;font-style:normal;font-variant:normal;font-weight:normal;font-stretch:normal;font-size:medium;line-height:normal;font-family:sans-serif;font-variant-ligatures:normal;font-variant-position:normal;font-variant-caps:normal;font-variant-numeric:normal;font-variant-alternates:normal;font-feature-settings:normal;text-indent:0;text-align:start;text-decoration:none;text-decoration-line:none;text-decoration-style:solid;text-decoration-color:#000000;letter-spacing:normal;word-spacing:normal;text-transform:none;writing-mode:lr-tb;direction:ltr;text-orientation:mixed;dominant-baseline:auto;baseline-shift:baseline;text-anchor:start;white-space:normal;shape-padding:0;clip-rule:nonzero;display:inline;overflow:visible;visibility:visible;isolation:auto;mix-blend-mode:normal;color-interpolation:sRGB;color-interpolation-filters:linearRGB;solid-color:#000000;solid-opacity:1;vector-effect:none;fill:#ececec;fill-opacity:1;fill-rule:nonzero;stroke:none;stroke-width:0.42796588;stroke-linecap:round;stroke-linejoin:round;stroke-miterlimit:4;stroke-dasharray:none;stroke-dashoffset:0;stroke-opacity:1;color-rendering:auto;image-rendering:auto;shape-rendering:auto;text-rendering:auto;enable-background:accumulate" />
      <path
         inkscape:connector-curvature="0"
         d="m -14.571721,357.30226 c -0.08246,0.002 -0.165518,0.007 -0.24908,0.0176 -1.324359,0.16191 -2.277001,1.35883 -2.145605,2.68201 0.885154,-0.0105 1.687344,-0.19481 2.294433,-0.50953 0.558813,-0.2897 0.929125,-0.72295 1.011825,-1.23249 a 0.26458349,0.26458349 0 0 0 0.0646,-0.17001 0.26458349,0.26458349 0 0 0 -0.0646,-0.17363 c -0.03072,-0.18593 -0.100551,-0.36132 -0.203089,-0.52349 -0.226435,-0.0636 -0.464399,-0.0954 -0.708484,-0.0904 z"
         style="color:#000000;font-style:normal;font-variant:normal;font-weight:normal;font-stretch:normal;font-size:medium;line-height:normal;font-family:sans-serif;font-variant-ligatures:normal;font-variant-position:normal;font-variant-caps:normal;font-variant-numeric:normal;font-variant-alternates:normal;font-feature-settings:normal;text-indent:0;text-align:start;text-decoration:none;text-decoration-line:none;text-decoration-style:solid;text-decoration-color:#000000;letter-spacing:normal;word-spacing:normal;text-transform:none;writing-mode:lr-tb;direction:ltr;text-orientation:mixed;dominant-baseline:auto;baseline-shift:baseline;text-anchor:start;white-space:normal;shape-padding:0;clip-rule:nonzero;display:inline;overflow:visible;visibility:visible;isolation:auto;mix-blend-mode:normal;color-interpolation:sRGB;color-interpolation-filters:linearRGB;solid-color:#000000;solid-opacity:1;vector-effect:none;fill:#d4d4d4;fill-opacity:1;fill-rule:nonzero;stroke:none;stroke-width:0.42796588;stroke-linecap:round;stroke-linejoin:round;stroke-miterlimit:4;stroke-dasharray:none;stroke-dashoffset:0;stroke-opacity:1;color-rendering:auto;image-rendering:auto;shape-rendering:auto;text-rendering:auto;enable-background:accumulate"
         id="path1101" />
      <path
         inkscape:connector-curvature="0"
         id="path1152"
         d="m -15.322266,358.2793 -4.361328,0.043 a 0.26460996,0.26460996 0 0 0 -0.261718,0.26367 l 0.002,1.81836 a 0.26460996,0.26460996 0 0 0 0,0.0273 c 0.06554,0.64126 0.675141,1.1491 1.541015,1.46094 0.865881,0.31185 1.931554,0.39421 2.919922,0.23047 a 0.26460996,0.26460996 0 0 0 0.220703,-0.2461 l 0.205078,-3.3164 a 0.26460996,0.26460996 0 0 0 -0.265625,-0.28125 z"
         style="color:#000000;font-style:normal;font-variant:normal;font-weight:normal;font-stretch:normal;font-size:medium;line-height:normal;font-family:sans-serif;font-variant-ligatures:normal;font-variant-position:normal;font-variant-caps:normal;font-variant-numeric:normal;font-variant-alternates:normal;font-feature-settings:normal;text-indent:0;text-align:start;text-decoration:none;text-decoration-line:none;text-decoration-style:solid;text-decoration-color:#000000;letter-spacing:normal;word-spacing:normal;text-transform:none;writing-mode:lr-tb;direction:ltr;text-orientation:mixed;dominant-baseline:auto;baseline-shift:baseline;text-anchor:start;white-space:normal;shape-padding:0;clip-rule:nonzero;display:inline;overflow:visible;visibility:visible;isolation:auto;mix-blend-mode:normal;color-interpolation:sRGB;color-interpolation-filters:linearRGB;solid-color:#000000;solid-opacity:1;vector-effect:none;fill:#ececec;fill-opacity:1;fill-rule:nonzero;stroke:none;stroke-width:0.42796588;stroke-linecap:round;stroke-linejoin:round;stroke-miterlimit:4;stroke-dasharray:none;stroke-dashoffset:0;stroke-opacity:1;color-rendering:auto;image-rendering:auto;shape-rendering:auto;text-rendering:auto;enable-background:accumulate" />
      <path
         inkscape:connector-curvature="0"
         id="path1053"
         d="m -16.480469,357.56641 c -0.581644,0 -1.108032,0.0923 -1.513672,0.25781 -0.202819,0.0828 -0.37777,0.18334 -0.513671,0.31445 -0.135902,0.13112 -0.238279,0.30749 -0.238282,0.50781 -3e-6,0.20033 0.10238,0.3767 0.238282,0.50782 0.135901,0.13112 0.310851,0.23168 0.513671,0.31445 0.405641,0.16553 0.932023,0.25977 1.513672,0.25977 0.58165,0 1.109984,-0.0942 1.515625,-0.25977 0.202821,-0.0828 0.375818,-0.18333 0.511719,-0.31445 0.0815,-0.0786 0.100094,-0.19799 0.142578,-0.30469 a 0.2645835,0.2645835 0 0 0 0.0957,-0.20313 0.2645835,0.2645835 0 0 0 -0.09375,-0.20117 c -0.04239,-0.1077 -0.0624,-0.2274 -0.144531,-0.30664 -0.135902,-0.13111 -0.308899,-0.23169 -0.511719,-0.31445 -0.40564,-0.16553 -0.93398,-0.25781 -1.515625,-0.25781 z"
         style="color:#000000;font-style:normal;font-variant:normal;font-weight:normal;font-stretch:normal;font-size:medium;line-height:normal;font-family:sans-serif;font-variant-ligatures:normal;font-variant-position:normal;font-variant-caps:normal;font-variant-numeric:normal;font-variant-alternates:normal;font-feature-settings:normal;text-indent:0;text-align:start;text-decoration:none;text-decoration-line:none;text-decoration-style:solid;text-decoration-color:#000000;letter-spacing:normal;word-spacing:normal;text-transform:none;writing-mode:lr-tb;direction:ltr;text-orientation:mixed;dominant-baseline:auto;baseline-shift:baseline;text-anchor:start;white-space:normal;shape-padding:0;clip-rule:nonzero;display:inline;overflow:visible;visibility:visible;isolation:auto;mix-blend-mode:normal;color-interpolation:sRGB;color-interpolation-filters:linearRGB;solid-color:#000000;solid-opacity:1;vector-effect:none;fill:#ffcc80;fill-opacity:1;fill-rule:nonzero;stroke:none;stroke-width:0.42796588;stroke-linecap:round;stroke-linejoin:round;stroke-miterlimit:4;stroke-dasharray:none;stroke-dashoffset:0;stroke-opacity:1;color-rendering:auto;image-rendering:auto;shape-rendering:auto;text-rendering:auto;enable-background:accumulate" />
      <path
         inkscape:connector-curvature="0"
         id="path1030"
         d="m -16.484375,356.18164 a 0.2645835,0.2645835 0 0 0 -0.230469,0.20508 0.2645835,0.2645835 0 0 0 0.199219,0.3164 l 2.632813,0.59376 a 0.2645835,0.2645835 0 0 0 0.314453,-0.20118 0.2645835,0.2645835 0 0 0 -0.199219,-0.3164 l -2.63086,-0.5918 a 0.2645835,0.2645835 0 0 0 -0.08594,-0.006 z"
         style="color:#000000;font-style:normal;font-variant:normal;font-weight:normal;font-stretch:normal;font-size:medium;line-height:normal;font-family:sans-serif;font-variant-ligatures:normal;font-variant-position:normal;font-variant-caps:normal;font-variant-numeric:normal;font-variant-alternates:normal;font-feature-settings:normal;text-indent:0;text-align:start;text-decoration:none;text-decoration-line:none;text-decoration-style:solid;text-decoration-color:#000000;letter-spacing:normal;word-spacing:normal;text-transform:none;writing-mode:lr-tb;direction:ltr;text-orientation:mixed;dominant-baseline:auto;baseline-shift:baseline;text-anchor:start;white-space:normal;shape-padding:0;clip-rule:nonzero;display:inline;overflow:visible;visibility:visible;opacity:1;isolation:auto;mix-blend-mode:normal;color-interpolation:sRGB;color-interpolation-filters:linearRGB;solid-color:#000000;solid-opacity:1;vector-effect:none;fill:#cccccc;fill-opacity:1;fill-rule:nonzero;stroke:none;stroke-width:0.42796588;stroke-linecap:round;stroke-linejoin:round;stroke-miterlimit:4;stroke-dasharray:none;stroke-dashoffset:0;stroke-opacity:1;color-rendering:auto;image-rendering:auto;shape-rendering:auto;text-rendering:auto;enable-background:accumulate" />
      <path
         inkscape:connector-curvature="0"
         id="path998"
         d="m -14.730469,350.65625 c -1.625376,0.19872 -2.790275,1.67789 -2.603515,3.30469 a 0.2645835,0.2645835 0 0 0 0.0098,0.0469 0.2645835,0.2645835 0 0 0 0.002,0.041 c 0.234542,1.62059 1.739052,2.75191 3.361328,2.52929 1.62228,-0.22261 2.765366,-1.71792 2.554688,-3.34179 -0.210678,-1.62387 -1.698846,-2.7788 -3.324219,-2.58008 z"
         style="color:#000000;font-style:normal;font-variant:normal;font-weight:normal;font-stretch:normal;font-size:medium;line-height:normal;font-family:sans-serif;font-variant-ligatures:normal;font-variant-position:normal;font-variant-caps:normal;font-variant-numeric:normal;font-variant-alternates:normal;font-feature-settings:normal;text-indent:0;text-align:start;text-decoration:none;text-decoration-line:none;text-decoration-style:solid;text-decoration-color:#000000;letter-spacing:normal;word-spacing:normal;text-transform:none;writing-mode:lr-tb;direction:ltr;text-orientation:mixed;dominant-baseline:auto;baseline-shift:baseline;text-anchor:start;white-space:normal;shape-padding:0;clip-rule:nonzero;display:inline;overflow:visible;visibility:visible;isolation:auto;mix-blend-mode:normal;color-interpolation:sRGB;color-interpolation-filters:linearRGB;solid-color:#000000;solid-opacity:1;vector-effect:none;fill:#ececec;fill-opacity:1;fill-rule:nonzero;stroke:none;stroke-width:0.42796588;stroke-linecap:round;stroke-linejoin:round;stroke-miterlimit:4;stroke-dasharray:none;stroke-dashoffset:0;stroke-opacity:1;color-rendering:auto;image-rendering:auto;shape-rendering:auto;text-rendering:auto;enable-background:accumulate" />
      <path
         inkscape:connector-curvature="0"
         id="path1015-0"
         d="m -14.695312,352.10547 a 0.2645835,0.2645835 0 0 0 -0.208985,0.10742 l -0.902344,1.23828 a 0.2645835,0.2645835 0 0 0 0.05859,0.36914 0.2645835,0.2645835 0 0 0 0.369141,-0.0566 l 0.902344,-1.23828 a 0.2645835,0.2645835 0 0 0 -0.05664,-0.36914 0.2645835,0.2645835 0 0 0 -0.162109,-0.0508 z"
         style="color:#000000;font-style:normal;font-variant:normal;font-weight:normal;font-stretch:normal;font-size:medium;line-height:normal;font-family:sans-serif;font-variant-ligatures:normal;font-variant-position:normal;font-variant-caps:normal;font-variant-numeric:normal;font-variant-alternates:normal;font-feature-settings:normal;text-indent:0;text-align:start;text-decoration:none;text-decoration-line:none;text-decoration-style:solid;text-decoration-color:#000000;letter-spacing:normal;word-spacing:normal;text-transform:none;writing-mode:lr-tb;direction:ltr;text-orientation:mixed;dominant-baseline:auto;baseline-shift:baseline;text-anchor:start;white-space:normal;shape-padding:0;clip-rule:nonzero;display:inline;overflow:visible;visibility:visible;opacity:1;isolation:auto;mix-blend-mode:normal;color-interpolation:sRGB;color-interpolation-filters:linearRGB;solid-color:#000000;solid-opacity:1;vector-effect:none;fill:#e6e6e6;fill-opacity:1;fill-rule:nonzero;stroke:none;stroke-width:0.42796588;stroke-linecap:round;stroke-linejoin:round;stroke-miterlimit:4;stroke-dasharray:none;stroke-dashoffset:0;stroke-opacity:1;color-rendering:auto;image-rendering:auto;shape-rendering:auto;text-rendering:auto;enable-background:accumulate" />
      <path
         inkscape:connector-curvature="0"
         id="path1023"
         d="m -13.044922,353.41992 a 0.2645835,0.2645835 0 0 0 -0.207031,0.10938 l -0.904297,1.23828 a 0.2645835,0.2645835 0 0 0 0.05859,0.36914 0.2645835,0.2645835 0 0 0 0.36914,-0.0586 l 0.904297,-1.23828 a 0.2645835,0.2645835 0 0 0 -0.05859,-0.36914 0.2645835,0.2645835 0 0 0 -0.16211,-0.0508 z"
         style="color:#000000;font-style:normal;font-variant:normal;font-weight:normal;font-stretch:normal;font-size:medium;line-height:normal;font-family:sans-serif;font-variant-ligatures:normal;font-variant-position:normal;font-variant-caps:normal;font-variant-numeric:normal;font-variant-alternates:normal;font-feature-settings:normal;text-indent:0;text-align:start;text-decoration:none;text-decoration-line:none;text-decoration-style:solid;text-decoration-color:#000000;letter-spacing:normal;word-spacing:normal;text-transform:none;writing-mode:lr-tb;direction:ltr;text-orientation:mixed;dominant-baseline:auto;baseline-shift:baseline;text-anchor:start;white-space:normal;shape-padding:0;clip-rule:nonzero;display:inline;overflow:visible;visibility:visible;opacity:1;isolation:auto;mix-blend-mode:normal;color-interpolation:sRGB;color-interpolation-filters:linearRGB;solid-color:#000000;solid-opacity:1;vector-effect:none;fill:#e6e6e6;fill-opacity:1;fill-rule:nonzero;stroke:none;stroke-width:0.42796588;stroke-linecap:round;stroke-linejoin:round;stroke-miterlimit:4;stroke-dasharray:none;stroke-dashoffset:0;stroke-opacity:1;color-rendering:auto;image-rendering:auto;shape-rendering:auto;text-rendering:auto;enable-background:accumulate" />
      <path
         inkscape:connector-curvature="0"
         id="path1019"
         d="m -13.376953,352.05273 a 0.2645835,0.2645835 0 0 0 -0.208985,0.10743 l -1.986328,2.65625 a 0.2645835,0.2645835 0 0 0 0.05274,0.36914 0.2645835,0.2645835 0 0 0 0.371093,-0.0527 l 1.986329,-2.65625 a 0.2645835,0.2645835 0 0 0 -0.05274,-0.37109 0.2645835,0.2645835 0 0 0 -0.162109,-0.0527 z"
         style="color:#000000;font-style:normal;font-variant:normal;font-weight:normal;font-stretch:normal;font-size:medium;line-height:normal;font-family:sans-serif;font-variant-ligatures:normal;font-variant-position:normal;font-variant-caps:normal;font-variant-numeric:normal;font-variant-alternates:normal;font-feature-settings:normal;text-indent:0;text-align:start;text-decoration:none;text-decoration-line:none;text-decoration-style:solid;text-decoration-color:#000000;letter-spacing:normal;word-spacing:normal;text-transform:none;writing-mode:lr-tb;direction:ltr;text-orientation:mixed;dominant-baseline:auto;baseline-shift:baseline;text-anchor:start;white-space:normal;shape-padding:0;clip-rule:nonzero;display:inline;overflow:visible;visibility:visible;opacity:1;isolation:auto;mix-blend-mode:normal;color-interpolation:sRGB;color-interpolation-filters:linearRGB;solid-color:#000000;solid-opacity:1;vector-effect:none;fill:#e6e6e6;fill-opacity:1;fill-rule:nonzero;stroke:none;stroke-width:0.42796588;stroke-linecap:round;stroke-linejoin:round;stroke-miterlimit:4;stroke-dasharray:none;stroke-dashoffset:0;stroke-opacity:1;color-rendering:auto;image-rendering:auto;shape-rendering:auto;text-rendering:auto;enable-background:accumulate" />
      <path
         inkscape:connector-curvature="0"
         d="m -16.51556,356.70313 c -0.916545,0 -1.747812,0.18957 -2.372981,0.51366 -0.370869,0.19226 -0.677677,0.44243 -0.868165,0.73691 0.10597,-0.0744 0.217963,-0.145 0.338998,-0.20774 0.62517,-0.32409 1.456437,-0.51367 2.372982,-0.51367 0.916545,0 1.747812,0.18958 2.372981,0.51367 0.557623,0.28907 0.927871,0.7208 1.011825,1.22886 a 0.26458349,0.26458349 0 0 1 0.06459,0.17363 0.26458349,0.26458349 0 0 1 -0.06459,0.17002 c -0.03095,0.1907 -0.102464,0.37061 -0.208773,0.5364 0.403714,-0.27868 0.669747,-0.64541 0.737939,-1.06557 a 0.26458349,0.26458349 0 0 0 0.0646,-0.17001 0.26458349,0.26458349 0 0 0 -0.0646,-0.17363 c -0.08395,-0.50806 -0.454201,-0.9398 -1.011824,-1.22887 -0.625169,-0.32409 -1.456437,-0.51366 -2.372982,-0.51366 z"
         style="color:#000000;font-style:normal;font-variant:normal;font-weight:normal;font-stretch:normal;font-size:medium;line-height:normal;font-family:sans-serif;font-variant-ligatures:normal;font-variant-position:normal;font-variant-caps:normal;font-variant-numeric:normal;font-variant-alternates:normal;font-feature-settings:normal;text-indent:0;text-align:start;text-decoration:none;text-decoration-line:none;text-decoration-style:solid;text-decoration-color:#000000;letter-spacing:normal;word-spacing:normal;text-transform:none;writing-mode:lr-tb;direction:ltr;text-orientation:mixed;dominant-baseline:auto;baseline-shift:baseline;text-anchor:start;white-space:normal;shape-padding:0;clip-rule:nonzero;display:inline;overflow:visible;visibility:visible;isolation:auto;mix-blend-mode:normal;color-interpolation:sRGB;color-interpolation-filters:linearRGB;solid-color:#000000;solid-opacity:1;vector-effect:none;fill:#d4d4d4;fill-opacity:1;fill-rule:nonzero;stroke:none;stroke-width:0.42796588;stroke-linecap:round;stroke-linejoin:round;stroke-miterlimit:4;stroke-dasharray:none;stroke-dashoffset:0;stroke-opacity:1;color-rendering:auto;image-rendering:auto;shape-rendering:auto;text-rendering:auto;enable-background:accumulate"
         id="path1063" />
      <path
         inkscape:connector-curvature="0"
         d="m -16.480512,357.56632 c -0.581644,0 -1.107963,0.0924 -1.513603,0.25787 -0.202819,0.0828 -0.377762,0.1836 -0.513663,0.31471 -0.08744,0.0844 -0.157609,0.18874 -0.198955,0.30489 0.05974,-0.0312 0.117412,-0.0635 0.183452,-0.0904 0.40564,-0.16551 0.931958,-0.25787 1.513603,-0.25787 0.581644,0 1.110029,0.0923 1.515669,0.25787 0.20282,0.0828 0.375695,0.1836 0.511597,0.31471 0.08213,0.0792 0.102304,0.19874 0.144694,0.30644 a 0.26458349,0.26458349 0 0 1 0.09405,0.20102 0.26458349,0.26458349 0 0 1 -0.09612,0.20309 c -0.0044,0.0112 -0.0079,0.0227 -0.01189,0.0341 0.152196,-0.0722 0.289864,-0.15364 0.398425,-0.25838 0.0815,-0.0786 0.100143,-0.19819 0.142627,-0.30489 a 0.26458349,0.26458349 0 0 0 0.09612,-0.20309 0.26458349,0.26458349 0 0 0 -0.09405,-0.20102 c -0.04239,-0.1077 -0.06256,-0.2272 -0.144694,-0.30644 -0.135902,-0.13111 -0.308777,-0.23195 -0.511597,-0.31471 -0.40564,-0.16553 -0.934025,-0.25787 -1.51567,-0.25787 z"
         style="color:#000000;font-style:normal;font-variant:normal;font-weight:normal;font-stretch:normal;font-size:medium;line-height:normal;font-family:sans-serif;font-variant-ligatures:normal;font-variant-position:normal;font-variant-caps:normal;font-variant-numeric:normal;font-variant-alternates:normal;font-feature-settings:normal;text-indent:0;text-align:start;text-decoration:none;text-decoration-line:none;text-decoration-style:solid;text-decoration-color:#000000;letter-spacing:normal;word-spacing:normal;text-transform:none;writing-mode:lr-tb;direction:ltr;text-orientation:mixed;dominant-baseline:auto;baseline-shift:baseline;text-anchor:start;white-space:normal;shape-padding:0;clip-rule:nonzero;display:inline;overflow:visible;visibility:visible;isolation:auto;mix-blend-mode:normal;color-interpolation:sRGB;color-interpolation-filters:linearRGB;solid-color:#000000;solid-opacity:1;vector-effect:none;fill:#f5b24e;fill-opacity:1;fill-rule:nonzero;stroke:none;stroke-width:0.42796588;stroke-linecap:round;stroke-linejoin:round;stroke-miterlimit:4;stroke-dasharray:none;stroke-dashoffset:0;stroke-opacity:1;color-rendering:auto;image-rendering:auto;shape-rendering:auto;text-rendering:auto;enable-background:accumulate"
         id="path1068" />
      <path
         inkscape:connector-curvature="0"
         transform="matrix(0.26458333,0,0,0.26458333,0,284.3)"
         d="m -59.474609,277.12695 c -2.781776,1.58711 -4.61235,4.55563 -4.6875,7.85938 0.604792,0.0596 1.225712,0.0976 1.873047,0.0976 2.198362,0 4.195384,-0.35664 5.728515,-0.98242 0.766568,-0.31294 1.419952,-0.69193 1.933594,-1.1875 0.308031,-0.29707 0.378493,-0.74907 0.539062,-1.15234 a 1.0000006,1.0000006 0 0 0 0.363282,-0.76758 1.0000006,1.0000006 0 0 0 -0.355469,-0.75976 c -0.160214,-0.40706 -0.236459,-0.85872 -0.546875,-1.15821 -0.513645,-0.49553 -1.16703,-0.87666 -1.933594,-1.18945 -0.843012,-0.34401 -1.834225,-0.59513 -2.914062,-0.75977 z"
         style="color:#000000;font-style:normal;font-variant:normal;font-weight:normal;font-stretch:normal;font-size:medium;line-height:normal;font-family:sans-serif;font-variant-ligatures:normal;font-variant-position:normal;font-variant-caps:normal;font-variant-numeric:normal;font-variant-alternates:normal;font-feature-settings:normal;text-indent:0;text-align:start;text-decoration:none;text-decoration-line:none;text-decoration-style:solid;text-decoration-color:#000000;letter-spacing:normal;word-spacing:normal;text-transform:none;writing-mode:lr-tb;direction:ltr;text-orientation:mixed;dominant-baseline:auto;baseline-shift:baseline;text-anchor:start;white-space:normal;shape-padding:0;clip-rule:nonzero;display:inline;overflow:visible;visibility:visible;isolation:auto;mix-blend-mode:normal;color-interpolation:sRGB;color-interpolation-filters:linearRGB;solid-color:#000000;solid-opacity:1;vector-effect:none;fill:#f5b24e;fill-opacity:1;fill-rule:nonzero;stroke:none;stroke-width:1.61750782;stroke-linecap:round;stroke-linejoin:round;stroke-miterlimit:4;stroke-dasharray:none;stroke-dashoffset:0;stroke-opacity:1;color-rendering:auto;image-rendering:auto;shape-rendering:auto;text-rendering:auto;enable-background:accumulate"
         id="path1112" />
      <path
         inkscape:connector-curvature="0"
         sodipodi:nodetypes="ccsccsscsssc"
         transform="matrix(0.26458333,0,0,0.26458333,0,284.3)"
         d="m -75.384766,281.65625 0.0059,3.86133 c 2.602352,2.54163 9.451133,4.65815 10.409136,6.25481 0.572309,0.95386 0.05656,1.64491 0.881879,2.60652 1.29257,0.0949 2.609909,0.08 3.91211,-0.0391 0.578639,-0.3261 1.078463,-0.78497 1.43164,-1.36523 0.886995,-1.45724 -0.477961,-2.7396 -1.238281,-3.99414 -0.196892,-0.32487 -0.414593,-0.63097 -0.642578,-0.92774 -0.58866,0.0431 -1.18565,0.0723 -1.796875,0.0723 -3.464107,0 -6.605903,-0.70865 -8.96875,-1.93359 -2.087849,-1.08235 -3.656076,-2.63931 -3.994141,-4.53516 z"
         style="fill:#cccccc;fill-opacity:1;stroke:none;stroke-width:2.91151404;stroke-linecap:round;stroke-opacity:1"
         id="path1168" />
      <path
         inkscape:connector-curvature="0"
         id="path1089"
         d="m -14.291719,357.84903 c -1.336994,0.16346 -2.296374,1.3814 -2.142755,2.71956 a 0.26458364,0.26458371 0 0 0 0.0072,0.0381 0.26458364,0.26458371 0 0 0 0.0024,0.0334 c 0.192928,1.33306 1.431594,2.26628 2.766036,2.08317 1.33444,-0.18311 2.275523,-1.41479 2.102235,-2.75054 -0.173289,-1.33576 -1.398056,-2.28715 -2.735051,-2.12369 z"
         style="color:#000000;font-style:normal;font-variant:normal;font-weight:normal;font-stretch:normal;font-size:medium;line-height:normal;font-family:sans-serif;font-variant-ligatures:normal;font-variant-position:normal;font-variant-caps:normal;font-variant-numeric:normal;font-variant-alternates:normal;font-feature-settings:normal;text-indent:0;text-align:start;text-decoration:none;text-decoration-line:none;text-decoration-style:solid;text-decoration-color:#000000;letter-spacing:normal;word-spacing:normal;text-transform:none;writing-mode:lr-tb;direction:ltr;text-orientation:mixed;dominant-baseline:auto;baseline-shift:baseline;text-anchor:start;white-space:normal;shape-padding:0;clip-rule:nonzero;display:inline;overflow:visible;visibility:visible;isolation:auto;mix-blend-mode:normal;color-interpolation:sRGB;color-interpolation-filters:linearRGB;solid-color:#000000;solid-opacity:1;vector-effect:none;fill:#ffcc80;fill-opacity:1;fill-rule:nonzero;stroke:none;stroke-width:0.42796588;stroke-linecap:round;stroke-linejoin:round;stroke-miterlimit:4;stroke-dasharray:none;stroke-dashoffset:0;stroke-opacity:1;color-rendering:auto;image-rendering:auto;shape-rendering:auto;text-rendering:auto;enable-background:accumulate" />
      <path
         inkscape:connector-curvature="0"
         d="m -14.063308,362.75912 c -0.08246,-0.002 -0.165518,-0.007 -0.24908,-0.0176 -0.696707,-0.0852 -1.288813,-0.45826 -1.676383,-0.98392 0.327385,0.23958 0.717285,0.40219 1.147216,0.45476 1.336995,0.16345 2.561945,-0.78815 2.735234,-2.12391 0.0847,-0.65291 -0.09839,-1.27962 -0.461987,-1.7725 0.70148,0.51281 1.110426,1.38228 0.991154,2.30167 -0.162459,1.25228 -1.249312,2.16675 -2.486154,2.14147 z"
         style="color:#000000;font-style:normal;font-variant:normal;font-weight:normal;font-stretch:normal;font-size:medium;line-height:normal;font-family:sans-serif;font-variant-ligatures:normal;font-variant-position:normal;font-variant-caps:normal;font-variant-numeric:normal;font-variant-alternates:normal;font-feature-settings:normal;text-indent:0;text-align:start;text-decoration:none;text-decoration-line:none;text-decoration-style:solid;text-decoration-color:#000000;letter-spacing:normal;word-spacing:normal;text-transform:none;writing-mode:lr-tb;direction:ltr;text-orientation:mixed;dominant-baseline:auto;baseline-shift:baseline;text-anchor:start;white-space:normal;shape-padding:0;clip-rule:nonzero;display:inline;overflow:visible;visibility:visible;isolation:auto;mix-blend-mode:normal;color-interpolation:sRGB;color-interpolation-filters:linearRGB;solid-color:#000000;solid-opacity:1;vector-effect:none;fill:#f0be7a;fill-opacity:1;fill-rule:nonzero;stroke:none;stroke-width:0.42796588;stroke-linecap:round;stroke-linejoin:round;stroke-miterlimit:4;stroke-dasharray:none;stroke-dashoffset:0;stroke-opacity:1;color-rendering:auto;image-rendering:auto;shape-rendering:auto;text-rendering:auto;enable-background:accumulate"
         id="path1195" />
      <path
         inkscape:connector-curvature="0"
         transform="matrix(0.26458333,0,0,0.26458333,0,284.3)"
         d="m -49.412109,278.5957 -11.486329,13.28907 c 1.001535,1.70636 2.525142,3.0405 4.320313,3.82421 l 11.576172,-13.39257 c -1.042022,-1.67524 -2.591918,-2.98105 -4.410156,-3.72071 z"
         style="color:#000000;font-style:normal;font-variant:normal;font-weight:normal;font-stretch:normal;font-size:medium;line-height:normal;font-family:sans-serif;font-variant-ligatures:normal;font-variant-position:normal;font-variant-caps:normal;font-variant-numeric:normal;font-variant-alternates:normal;font-feature-settings:normal;text-indent:0;text-align:start;text-decoration:none;text-decoration-line:none;text-decoration-style:solid;text-decoration-color:#000000;letter-spacing:normal;word-spacing:normal;text-transform:none;writing-mode:lr-tb;direction:ltr;text-orientation:mixed;dominant-baseline:auto;baseline-shift:baseline;text-anchor:start;white-space:normal;shape-padding:0;clip-rule:nonzero;display:inline;overflow:visible;visibility:visible;isolation:auto;mix-blend-mode:normal;color-interpolation:sRGB;color-interpolation-filters:linearRGB;solid-color:#000000;solid-opacity:1;vector-effect:none;fill:#a1887f;fill-opacity:1;fill-rule:nonzero;stroke:none;stroke-width:1.61750782;stroke-linecap:round;stroke-linejoin:round;stroke-miterlimit:4;stroke-dasharray:none;stroke-dashoffset:0;stroke-opacity:1;color-rendering:auto;image-rendering:auto;shape-rendering:auto;text-rendering:auto;enable-background:accumulate"
         id="path1182" />
      <path
         inkscape:connector-curvature="0"
         d="m -14.427645,350.63455 c -0.100236,0.002 -0.201238,0.009 -0.302824,0.0217 -0.823092,0.10063 -1.527138,0.53026 -1.998328,1.1405 0.412669,-0.32254 0.912908,-0.54332 1.469161,-0.61133 1.625373,-0.19872 3.113667,0.95633 3.324345,2.5802 0.106031,0.81727 -0.131677,1.60133 -0.599963,2.20762 0.805203,-0.62914 1.269718,-1.65316 1.12913,-2.73678 -0.197511,-1.52238 -1.517989,-2.63282 -3.021521,-2.60191 z"
         style="color:#000000;font-style:normal;font-variant:normal;font-weight:normal;font-stretch:normal;font-size:medium;line-height:normal;font-family:sans-serif;font-variant-ligatures:normal;font-variant-position:normal;font-variant-caps:normal;font-variant-numeric:normal;font-variant-alternates:normal;font-feature-settings:normal;text-indent:0;text-align:start;text-decoration:none;text-decoration-line:none;text-decoration-style:solid;text-decoration-color:#000000;letter-spacing:normal;word-spacing:normal;text-transform:none;writing-mode:lr-tb;direction:ltr;text-orientation:mixed;dominant-baseline:auto;baseline-shift:baseline;text-anchor:start;white-space:normal;shape-padding:0;clip-rule:nonzero;display:inline;overflow:visible;visibility:visible;isolation:auto;mix-blend-mode:normal;color-interpolation:sRGB;color-interpolation-filters:linearRGB;solid-color:#000000;solid-opacity:1;vector-effect:none;fill:#d4d4d4;fill-opacity:1;fill-rule:nonzero;stroke:none;stroke-width:0.42796588;stroke-linecap:round;stroke-linejoin:round;stroke-miterlimit:4;stroke-dasharray:none;stroke-dashoffset:0;stroke-opacity:1;color-rendering:auto;image-rendering:auto;shape-rendering:auto;text-rendering:auto;enable-background:accumulate"
         id="path1008-4" />
    </g>
  </g>
</svg>
